<svg width="19" height="19" viewBox="0 0 19 19" fill="none" xmlns="http://www.w3.org/2000/svg">
<path d="M14.4057 3.71362C13.8227 3.71362 13.3501 4.18624 13.3501 4.76874C13.3501 5.35175 13.8227 5.82436 14.4057 5.82436C14.9882 5.82436 15.4608 5.35175 15.4608 4.76874C15.4608 4.18624 14.9882 3.71362 14.4057 3.71362Z" fill="white"/>
<path d="M9.71386 12.3392C8.14798 12.3392 6.87409 11.0654 6.87409 9.49999C6.87409 7.93411 8.14798 6.66025 9.71386 6.66025C11.2792 6.66025 12.5531 7.93411 12.5531 9.49999C12.5531 11.0654 11.2792 12.3392 9.71386 12.3392ZM9.71386 5.06689C7.26939 5.06689 5.28076 7.05553 5.28076 9.49999C5.28076 11.9439 7.26939 13.9326 9.71386 13.9326C12.1578 13.9326 14.1465 11.9439 14.1465 9.49999C14.1465 7.05553 12.1578 5.06689 9.71386 5.06689Z" fill="white"/>
<path d="M6.04694 2.19357C3.99929 2.19357 2.33369 3.85917 2.33369 5.90682V13.0932C2.33369 15.1408 3.99929 16.8064 6.04694 16.8064H13.2333C15.2809 16.8064 16.947 15.1408 16.947 13.0932V5.90682C16.947 3.85917 15.2809 2.19357 13.2333 2.19357H6.04694ZM13.2333 18.5H6.04694C3.06525 18.5 0.640625 16.0744 0.640625 13.0932V5.90682C0.640625 2.92513 3.06525 0.5 6.04694 0.5H13.2333C16.2145 0.5 18.6401 2.92513 18.6401 5.90682V13.0932C18.6401 16.0744 16.2145 18.5 13.2333 18.5Z" fill="white"/>
</svg>
