<svg width="15" height="18" viewBox="0 0 15 18" fill="none" xmlns="http://www.w3.org/2000/svg">
<path fill-rule="evenodd" clip-rule="evenodd" d="M6.57741 11.7417C6.56215 11.7936 6.5484 11.8368 6.5367 11.8806C5.87534 14.4706 5.80208 15.046 5.12291 16.2497C4.79833 16.821 4.43357 17.3628 4.02963 17.8817C3.98384 17.9402 3.94162 18.0155 3.85056 17.9972C3.75084 17.9758 3.7432 17.8863 3.732 17.8064C3.62313 17.0194 3.56363 16.2298 3.58957 15.4357C3.62366 14.4004 3.75184 14.0453 5.08627 8.43284C5.10611 8.34737 5.08424 8.27666 5.05575 8.19882C4.73626 7.33752 4.67318 6.46299 4.95197 5.57676C5.55585 3.66236 7.72613 3.51584 8.10566 5.09549C8.33917 6.07227 7.72107 7.35023 7.24641 9.2397C6.85315 10.799 8.68817 11.907 10.2571 10.769C11.703 9.71996 12.2646 7.20423 12.1578 5.42159C11.9477 1.86752 8.05073 1.09932 5.57722 2.24399C2.74302 3.55451 2.09843 7.06839 3.37842 8.67398C3.54021 8.87849 3.66538 9.00314 3.61196 9.21071C3.52954 9.53172 3.45679 9.85579 3.36827 10.1758C3.30213 10.4134 3.10268 10.5004 2.86204 10.4022C2.39044 10.2114 1.9972 9.91125 1.67822 9.51544C0.591543 8.16982 0.280684 5.50706 1.71737 3.25384C3.30974 0.756423 6.27166 -0.253431 8.97512 0.0533407C12.2046 0.420144 14.2457 2.62707 14.6283 5.13008C14.8023 6.27069 14.6771 9.0825 13.0766 11.0702C11.2344 13.3539 8.24913 13.505 6.87196 12.1034C6.76614 11.9961 6.68119 11.8699 6.57741 11.7417Z" fill="white"/>
</svg>
