<svg width="19" height="18" viewBox="0 0 19 18" fill="none" xmlns="http://www.w3.org/2000/svg">
<path d="M5.17106 14.8997L5.4758 15.0813C6.59454 15.7478 7.86743 16.1003 9.15609 16.1003C13.1319 16.1003 16.3661 12.8662 16.3661 8.89036C16.3661 4.91501 13.1319 1.6804 9.15609 1.6804C5.18124 1.6804 1.94612 4.91501 1.94612 8.89036C1.94612 10.2029 2.31088 11.4957 3.00125 12.6286L3.18796 12.9354L2.46756 15.6241L5.17106 14.8997ZM0.0906982 18L1.38089 13.1857C0.650326 11.867 0.266232 10.3902 0.266232 8.89036C0.266232 3.98858 4.25379 0 9.15609 0C14.0584 0 18.047 3.98858 18.047 8.89036C18.047 13.7927 14.0584 17.7812 9.15609 17.7812C7.68479 17.7812 6.23128 17.4093 4.93041 16.7042L0.0906982 18Z" fill="white"/>
<path fill-rule="evenodd" clip-rule="evenodd" d="M12.4632 10.1271C12.0969 9.90788 11.6212 9.66368 11.1898 9.8397C10.8596 9.97554 10.6485 10.4934 10.4338 10.7575C10.3239 10.8933 10.1927 10.9142 10.0237 10.8465C8.78241 10.3515 7.83106 9.52275 7.14577 8.38112C7.02978 8.20357 7.05061 8.06367 7.19052 7.89934C7.39758 7.65565 7.65756 7.37889 7.71352 7.05024C7.76948 6.7221 7.61535 6.3385 7.47952 6.04546C7.30603 5.67204 7.1122 5.13939 6.73776 4.92775C6.39384 4.73341 5.94055 4.84227 5.63428 5.09156C5.10518 5.52298 4.84977 6.19759 4.8574 6.8671C4.85995 7.05737 4.88335 7.24713 4.92761 7.43028C5.03445 7.87136 5.23795 8.28395 5.46791 8.67518C5.64088 8.97076 5.82912 9.2577 6.03211 9.53344C6.69603 10.4355 7.52225 11.2194 8.47869 11.8055C8.95691 12.098 9.47124 12.355 10.0044 12.531C10.6022 12.7284 11.1349 12.9339 11.7805 12.8113C12.4561 12.6831 13.123 12.2649 13.3912 11.6137C13.4705 11.4204 13.5102 11.2057 13.4659 11.0022C13.3738 10.5809 12.804 10.3306 12.4632 10.1271Z" fill="white"/>
</svg>
