<svg width="19" height="18" viewBox="0 0 19 18" fill="none" xmlns="http://www.w3.org/2000/svg">
<path d="M14.6449 3.21362C14.0619 3.21362 13.5892 3.68624 13.5892 4.26874C13.5892 4.85175 14.0619 5.32436 14.6449 5.32436C15.2274 5.32436 15.7 4.85175 15.7 4.26874C15.7 3.68624 15.2274 3.21362 14.6449 3.21362Z" fill="white"/>
<path d="M9.95315 11.8393C8.38727 11.8393 7.11338 10.5654 7.11338 9.00003C7.11338 7.43414 8.38727 6.16028 9.95315 6.16028C11.5185 6.16028 12.7924 7.43414 12.7924 9.00003C12.7924 10.5654 11.5185 11.8393 9.95315 11.8393ZM9.95315 4.56693C7.50868 4.56693 5.52005 6.55556 5.52005 9.00003C5.52005 11.444 7.50868 13.4326 9.95315 13.4326C12.3971 13.4326 14.3857 11.444 14.3857 9.00003C14.3857 6.55556 12.3971 4.56693 9.95315 4.56693Z" fill="white"/>
<path d="M6.28617 1.69357C4.23852 1.69357 2.57292 3.35917 2.57292 5.40682V12.5932C2.57292 14.6408 4.23852 16.3064 6.28617 16.3064H13.4725C15.5202 16.3064 17.1863 14.6408 17.1863 12.5932V5.40682C17.1863 3.35917 15.5202 1.69357 13.4725 1.69357H6.28617ZM13.4725 18H6.28617C3.30448 18 0.879852 15.5744 0.879852 12.5932V5.40682C0.879852 2.42513 3.30448 0 6.28617 0H13.4725C16.4537 0 18.8793 2.42513 18.8793 5.40682V12.5932C18.8793 15.5744 16.4537 18 13.4725 18Z" fill="white"/>
</svg>
