<svg width="17" height="18" viewBox="0 0 17 18" fill="none" xmlns="http://www.w3.org/2000/svg">
<path d="M16.0882 7.28289C15.9411 7.29686 15.7934 7.30434 15.6453 7.30534C14.0242 7.30534 12.5128 6.48832 11.625 5.1321V12.5312C11.625 15.5519 9.17592 18 6.15622 18C3.13552 18 0.687439 15.5519 0.687439 12.5312C0.687439 9.51101 3.13552 7.06293 6.15622 7.06293C6.26994 7.06293 6.38167 7.07291 6.4939 7.07989V9.77487C6.38167 9.7614 6.27144 9.74095 6.15622 9.74095C4.61444 9.74095 3.36496 10.9909 3.36496 12.5317C3.36496 14.0735 4.61444 15.323 6.15622 15.323C7.69799 15.323 9.05921 14.1084 9.05921 12.5666L9.08663 0H11.6649C11.9078 2.31191 13.7718 4.11805 16.0907 4.28764V7.28289" fill="white"/>
</svg>
